<svg xmlns="http://www.w3.org/2000/svg" viewBox="0 0 200 200" width="200" height="200" style="background:#070710; border-radius:12px;">
  <defs>
    <linearGradient id="neonSquareGrad" x1="0%" y1="0%" x2="100%" y2="100%">
      <stop offset="0%" stop-color="#ff007f" />
      <stop offset="50%" stop-color="#8000ff" />
      <stop offset="100%" stop-color="#00f0ff" />
    </linearGradient>
    <filter id="neonSquareGlow" x="-20%" y="-20%" width="140%" height="140%">
      <feGaussianBlur stdDeviation="2.5" result="blur" />
      <feComposite in="SourceGraphic" in2="blur" operator="over" />
    </filter>
  </defs>

  <!-- Glowing Cyberpunk Border -->
  <rect x="2" y="2" width="196" height="196" rx="10" fill="#070710" stroke="url(#neonSquareGrad)" stroke-width="2" filter="url(#neonSquareGlow)"/>

  <!-- High Contrast White Inner Plate for Flawless Camera Scanning -->
  <rect x="10" y="10" width="180" height="180" rx="6" fill="#ffffff"/>

  <!-- Pure Vector QR Grid -->
  <rect x="17.03" y="17.03" width="5.13" height="5.13" fill="#050508"/><rect x="22.06" y="17.03" width="5.13" height="5.13" fill="#050508"/><rect x="27.09" y="17.03" width="5.13" height="5.13" fill="#050508"/><rect x="32.11" y="17.03" width="5.13" height="5.13" fill="#050508"/><rect x="37.14" y="17.03" width="5.13" height="5.13" fill="#050508"/><rect x="42.17" y="17.03" width="5.13" height="5.13" fill="#050508"/><rect x="47.20" y="17.03" width="5.13" height="5.13" fill="#050508"/><rect x="62.29" y="17.03" width="5.13" height="5.13" fill="#050508"/><rect x="67.31" y="17.03" width="5.13" height="5.13" fill="#050508"/><rect x="77.37" y="17.03" width="5.13" height="5.13" fill="#050508"/><rect x="82.40" y="17.03" width="5.13" height="5.13" fill="#050508"/><rect x="97.49" y="17.03" width="5.13" height="5.13" fill="#050508"/><rect x="102.51" y="17.03" width="5.13" height="5.13" fill="#050508"/><rect x="112.57" y="17.03" width="5.13" height="5.13" fill="#050508"/><rect x="117.60" y="17.03" width="5.13" height="5.13" fill="#050508"/><rect x="122.63" y="17.03" width="5.13" height="5.13" fill="#050508"/><rect x="132.69" y="17.03" width="5.13" height="5.13" fill="#050508"/><rect x="147.77" y="17.03" width="5.13" height="5.13" fill="#050508"/><rect x="152.80" y="17.03" width="5.13" height="5.13" fill="#050508"/><rect x="157.83" y="17.03" width="5.13" height="5.13" fill="#050508"/><rect x="162.86" y="17.03" width="5.13" height="5.13" fill="#050508"/><rect x="167.89" y="17.03" width="5.13" height="5.13" fill="#050508"/><rect x="172.91" y="17.03" width="5.13" height="5.13" fill="#050508"/><rect x="177.94" y="17.03" width="5.13" height="5.13" fill="#050508"/><rect x="17.03" y="22.06" width="5.13" height="5.13" fill="#050508"/><rect x="47.20" y="22.06" width="5.13" height="5.13" fill="#050508"/><rect x="62.29" y="22.06" width="5.13" height="5.13" fill="#050508"/><rect x="67.31" y="22.06" width="5.13" height="5.13" fill="#050508"/><rect x="82.40" y="22.06" width="5.13" height="5.13" fill="#050508"/><rect x="87.43" y="22.06" width="5.13" height="5.13" fill="#050508"/><rect x="92.46" y="22.06" width="5.13" height="5.13" fill="#050508"/><rect x="97.49" y="22.06" width="5.13" height="5.13" fill="#050508"/><rect x="102.51" y="22.06" width="5.13" height="5.13" fill="#050508"/><rect x="117.60" y="22.06" width="5.13" height="5.13" fill="#050508"/><rect x="127.66" y="22.06" width="5.13" height="5.13" fill="#050508"/><rect x="137.71" y="22.06" width="5.13" height="5.13" fill="#050508"/><rect x="147.77" y="22.06" width="5.13" height="5.13" fill="#050508"/><rect x="177.94" y="22.06" width="5.13" height="5.13" fill="#050508"/><rect x="17.03" y="27.09" width="5.13" height="5.13" fill="#050508"/><rect x="27.09" y="27.09" width="5.13" height="5.13" fill="#050508"/><rect x="32.11" y="27.09" width="5.13" height="5.13" fill="#050508"/><rect x="37.14" y="27.09" width="5.13" height="5.13" fill="#050508"/><rect x="47.20" y="27.09" width="5.13" height="5.13" fill="#050508"/><rect x="57.26" y="27.09" width="5.13" height="5.13" fill="#050508"/><rect x="62.29" y="27.09" width="5.13" height="5.13" fill="#050508"/><rect x="67.31" y="27.09" width="5.13" height="5.13" fill="#050508"/><rect x="72.34" y="27.09" width="5.13" height="5.13" fill="#050508"/><rect x="77.37" y="27.09" width="5.13" height="5.13" fill="#050508"/><rect x="82.40" y="27.09" width="5.13" height="5.13" fill="#050508"/><rect x="97.49" y="27.09" width="5.13" height="5.13" fill="#050508"/><rect x="102.51" y="27.09" width="5.13" height="5.13" fill="#050508"/><rect x="107.54" y="27.09" width="5.13" height="5.13" fill="#050508"/><rect x="122.63" y="27.09" width="5.13" height="5.13" fill="#050508"/><rect x="147.77" y="27.09" width="5.13" height="5.13" fill="#050508"/><rect x="157.83" y="27.09" width="5.13" height="5.13" fill="#050508"/><rect x="162.86" y="27.09" width="5.13" height="5.13" fill="#050508"/><rect x="167.89" y="27.09" width="5.13" height="5.13" fill="#050508"/><rect x="177.94" y="27.09" width="5.13" height="5.13" fill="#050508"/><rect x="17.03" y="32.11" width="5.13" height="5.13" fill="#050508"/><rect x="27.09" y="32.11" width="5.13" height="5.13" fill="#050508"/><rect x="32.11" y="32.11" width="5.13" height="5.13" fill="#050508"/><rect x="37.14" y="32.11" width="5.13" height="5.13" fill="#050508"/><rect x="47.20" y="32.11" width="5.13" height="5.13" fill="#050508"/><rect x="57.26" y="32.11" width="5.13" height="5.13" fill="#050508"/><rect x="62.29" y="32.11" width="5.13" height="5.13" fill="#050508"/><rect x="77.37" y="32.11" width="5.13" height="5.13" fill="#050508"/><rect x="87.43" y="32.11" width="5.13" height="5.13" fill="#050508"/><rect x="97.49" y="32.11" width="5.13" height="5.13" fill="#050508"/><rect x="112.57" y="32.11" width="5.13" height="5.13" fill="#050508"/><rect x="117.60" y="32.11" width="5.13" height="5.13" fill="#050508"/><rect x="147.77" y="32.11" width="5.13" height="5.13" fill="#050508"/><rect x="157.83" y="32.11" width="5.13" height="5.13" fill="#050508"/><rect x="162.86" y="32.11" width="5.13" height="5.13" fill="#050508"/><rect x="167.89" y="32.11" width="5.13" height="5.13" fill="#050508"/><rect x="177.94" y="32.11" width="5.13" height="5.13" fill="#050508"/><rect x="17.03" y="37.14" width="5.13" height="5.13" fill="#050508"/><rect x="27.09" y="37.14" width="5.13" height="5.13" fill="#050508"/><rect x="32.11" y="37.14" width="5.13" height="5.13" fill="#050508"/><rect x="37.14" y="37.14" width="5.13" height="5.13" fill="#050508"/><rect x="47.20" y="37.14" width="5.13" height="5.13" fill="#050508"/><rect x="57.26" y="37.14" width="5.13" height="5.13" fill="#050508"/><rect x="67.31" y="37.14" width="5.13" height="5.13" fill="#050508"/><rect x="72.34" y="37.14" width="5.13" height="5.13" fill="#050508"/><rect x="77.37" y="37.14" width="5.13" height="5.13" fill="#050508"/><rect x="82.40" y="37.14" width="5.13" height="5.13" fill="#050508"/><rect x="92.46" y="37.14" width="5.13" height="5.13" fill="#050508"/><rect x="107.54" y="37.14" width="5.13" height="5.13" fill="#050508"/><rect x="122.63" y="37.14" width="5.13" height="5.13" fill="#050508"/><rect x="132.69" y="37.14" width="5.13" height="5.13" fill="#050508"/><rect x="137.71" y="37.14" width="5.13" height="5.13" fill="#050508"/><rect x="147.77" y="37.14" width="5.13" height="5.13" fill="#050508"/><rect x="157.83" y="37.14" width="5.13" height="5.13" fill="#050508"/><rect x="162.86" y="37.14" width="5.13" height="5.13" fill="#050508"/><rect x="167.89" y="37.14" width="5.13" height="5.13" fill="#050508"/><rect x="177.94" y="37.14" width="5.13" height="5.13" fill="#050508"/><rect x="17.03" y="42.17" width="5.13" height="5.13" fill="#050508"/><rect x="47.20" y="42.17" width="5.13" height="5.13" fill="#050508"/><rect x="57.26" y="42.17" width="5.13" height="5.13" fill="#050508"/><rect x="67.31" y="42.17" width="5.13" height="5.13" fill="#050508"/><rect x="72.34" y="42.17" width="5.13" height="5.13" fill="#050508"/><rect x="82.40" y="42.17" width="5.13" height="5.13" fill="#050508"/><rect x="92.46" y="42.17" width="5.13" height="5.13" fill="#050508"/><rect x="97.49" y="42.17" width="5.13" height="5.13" fill="#050508"/><rect x="117.60" y="42.17" width="5.13" height="5.13" fill="#050508"/><rect x="122.63" y="42.17" width="5.13" height="5.13" fill="#050508"/><rect x="127.66" y="42.17" width="5.13" height="5.13" fill="#050508"/><rect x="137.71" y="42.17" width="5.13" height="5.13" fill="#050508"/><rect x="147.77" y="42.17" width="5.13" height="5.13" fill="#050508"/><rect x="177.94" y="42.17" width="5.13" height="5.13" fill="#050508"/><rect x="17.03" y="47.20" width="5.13" height="5.13" fill="#050508"/><rect x="22.06" y="47.20" width="5.13" height="5.13" fill="#050508"/><rect x="27.09" y="47.20" width="5.13" height="5.13" fill="#050508"/><rect x="32.11" y="47.20" width="5.13" height="5.13" fill="#050508"/><rect x="37.14" y="47.20" width="5.13" height="5.13" fill="#050508"/><rect x="42.17" y="47.20" width="5.13" height="5.13" fill="#050508"/><rect x="47.20" y="47.20" width="5.13" height="5.13" fill="#050508"/><rect x="57.26" y="47.20" width="5.13" height="5.13" fill="#050508"/><rect x="67.31" y="47.20" width="5.13" height="5.13" fill="#050508"/><rect x="77.37" y="47.20" width="5.13" height="5.13" fill="#050508"/><rect x="87.43" y="47.20" width="5.13" height="5.13" fill="#050508"/><rect x="97.49" y="47.20" width="5.13" height="5.13" fill="#050508"/><rect x="107.54" y="47.20" width="5.13" height="5.13" fill="#050508"/><rect x="117.60" y="47.20" width="5.13" height="5.13" fill="#050508"/><rect x="127.66" y="47.20" width="5.13" height="5.13" fill="#050508"/><rect x="137.71" y="47.20" width="5.13" height="5.13" fill="#050508"/><rect x="147.77" y="47.20" width="5.13" height="5.13" fill="#050508"/><rect x="152.80" y="47.20" width="5.13" height="5.13" fill="#050508"/><rect x="157.83" y="47.20" width="5.13" height="5.13" fill="#050508"/><rect x="162.86" y="47.20" width="5.13" height="5.13" fill="#050508"/><rect x="167.89" y="47.20" width="5.13" height="5.13" fill="#050508"/><rect x="172.91" y="47.20" width="5.13" height="5.13" fill="#050508"/><rect x="177.94" y="47.20" width="5.13" height="5.13" fill="#050508"/><rect x="57.26" y="52.23" width="5.13" height="5.13" fill="#050508"/><rect x="62.29" y="52.23" width="5.13" height="5.13" fill="#050508"/><rect x="72.34" y="52.23" width="5.13" height="5.13" fill="#050508"/><rect x="87.43" y="52.23" width="5.13" height="5.13" fill="#050508"/><rect x="92.46" y="52.23" width="5.13" height="5.13" fill="#050508"/><rect x="107.54" y="52.23" width="5.13" height="5.13" fill="#050508"/><rect x="122.63" y="52.23" width="5.13" height="5.13" fill="#050508"/><rect x="127.66" y="52.23" width="5.13" height="5.13" fill="#050508"/><rect x="132.69" y="52.23" width="5.13" height="5.13" fill="#050508"/><rect x="137.71" y="52.23" width="5.13" height="5.13" fill="#050508"/><rect x="17.03" y="57.26" width="5.13" height="5.13" fill="#050508"/><rect x="27.09" y="57.26" width="5.13" height="5.13" fill="#050508"/><rect x="32.11" y="57.26" width="5.13" height="5.13" fill="#050508"/><rect x="37.14" y="57.26" width="5.13" height="5.13" fill="#050508"/><rect x="42.17" y="57.26" width="5.13" height="5.13" fill="#050508"/><rect x="47.20" y="57.26" width="5.13" height="5.13" fill="#050508"/><rect x="62.29" y="57.26" width="5.13" height="5.13" fill="#050508"/><rect x="67.31" y="57.26" width="5.13" height="5.13" fill="#050508"/><rect x="72.34" y="57.26" width="5.13" height="5.13" fill="#050508"/><rect x="82.40" y="57.26" width="5.13" height="5.13" fill="#050508"/><rect x="87.43" y="57.26" width="5.13" height="5.13" fill="#050508"/><rect x="92.46" y="57.26" width="5.13" height="5.13" fill="#050508"/><rect x="102.51" y="57.26" width="5.13" height="5.13" fill="#050508"/><rect x="127.66" y="57.26" width="5.13" height="5.13" fill="#050508"/><rect x="137.71" y="57.26" width="5.13" height="5.13" fill="#050508"/><rect x="147.77" y="57.26" width="5.13" height="5.13" fill="#050508"/><rect x="152.80" y="57.26" width="5.13" height="5.13" fill="#050508"/><rect x="157.83" y="57.26" width="5.13" height="5.13" fill="#050508"/><rect x="162.86" y="57.26" width="5.13" height="5.13" fill="#050508"/><rect x="167.89" y="57.26" width="5.13" height="5.13" fill="#050508"/><rect x="17.03" y="62.29" width="5.13" height="5.13" fill="#050508"/><rect x="37.14" y="62.29" width="5.13" height="5.13" fill="#050508"/><rect x="52.23" y="62.29" width="5.13" height="5.13" fill="#050508"/><rect x="57.26" y="62.29" width="5.13" height="5.13" fill="#050508"/><rect x="62.29" y="62.29" width="5.13" height="5.13" fill="#050508"/><rect x="67.31" y="62.29" width="5.13" height="5.13" fill="#050508"/><rect x="87.43" y="62.29" width="5.13" height="5.13" fill="#050508"/><rect x="107.54" y="62.29" width="5.13" height="5.13" fill="#050508"/><rect x="112.57" y="62.29" width="5.13" height="5.13" fill="#050508"/><rect x="117.60" y="62.29" width="5.13" height="5.13" fill="#050508"/><rect x="127.66" y="62.29" width="5.13" height="5.13" fill="#050508"/><rect x="132.69" y="62.29" width="5.13" height="5.13" fill="#050508"/><rect x="147.77" y="62.29" width="5.13" height="5.13" fill="#050508"/><rect x="152.80" y="62.29" width="5.13" height="5.13" fill="#050508"/><rect x="162.86" y="62.29" width="5.13" height="5.13" fill="#050508"/><rect x="167.89" y="62.29" width="5.13" height="5.13" fill="#050508"/><rect x="177.94" y="62.29" width="5.13" height="5.13" fill="#050508"/><rect x="17.03" y="67.31" width="5.13" height="5.13" fill="#050508"/><rect x="27.09" y="67.31" width="5.13" height="5.13" fill="#050508"/><rect x="32.11" y="67.31" width="5.13" height="5.13" fill="#050508"/><rect x="47.20" y="67.31" width="5.13" height="5.13" fill="#050508"/><rect x="67.31" y="67.31" width="5.13" height="5.13" fill="#050508"/><rect x="77.37" y="67.31" width="5.13" height="5.13" fill="#050508"/><rect x="92.46" y="67.31" width="5.13" height="5.13" fill="#050508"/><rect x="97.49" y="67.31" width="5.13" height="5.13" fill="#050508"/><rect x="107.54" y="67.31" width="5.13" height="5.13" fill="#050508"/><rect x="117.60" y="67.31" width="5.13" height="5.13" fill="#050508"/><rect x="127.66" y="67.31" width="5.13" height="5.13" fill="#050508"/><rect x="137.71" y="67.31" width="5.13" height="5.13" fill="#050508"/><rect x="147.77" y="67.31" width="5.13" height="5.13" fill="#050508"/><rect x="157.83" y="67.31" width="5.13" height="5.13" fill="#050508"/><rect x="167.89" y="67.31" width="5.13" height="5.13" fill="#050508"/><rect x="172.91" y="67.31" width="5.13" height="5.13" fill="#050508"/><rect x="17.03" y="72.34" width="5.13" height="5.13" fill="#050508"/><rect x="22.06" y="72.34" width="5.13" height="5.13" fill="#050508"/><rect x="27.09" y="72.34" width="5.13" height="5.13" fill="#050508"/><rect x="32.11" y="72.34" width="5.13" height="5.13" fill="#050508"/><rect x="62.29" y="72.34" width="5.13" height="5.13" fill="#050508"/><rect x="67.31" y="72.34" width="5.13" height="5.13" fill="#050508"/><rect x="72.34" y="72.34" width="5.13" height="5.13" fill="#050508"/><rect x="77.37" y="72.34" width="5.13" height="5.13" fill="#050508"/><rect x="87.43" y="72.34" width="5.13" height="5.13" fill="#050508"/><rect x="97.49" y="72.34" width="5.13" height="5.13" fill="#050508"/><rect x="112.57" y="72.34" width="5.13" height="5.13" fill="#050508"/><rect x="117.60" y="72.34" width="5.13" height="5.13" fill="#050508"/><rect x="122.63" y="72.34" width="5.13" height="5.13" fill="#050508"/><rect x="127.66" y="72.34" width="5.13" height="5.13" fill="#050508"/><rect x="132.69" y="72.34" width="5.13" height="5.13" fill="#050508"/><rect x="157.83" y="72.34" width="5.13" height="5.13" fill="#050508"/><rect x="162.86" y="72.34" width="5.13" height="5.13" fill="#050508"/><rect x="167.89" y="72.34" width="5.13" height="5.13" fill="#050508"/><rect x="172.91" y="72.34" width="5.13" height="5.13" fill="#050508"/><rect x="17.03" y="77.37" width="5.13" height="5.13" fill="#050508"/><rect x="22.06" y="77.37" width="5.13" height="5.13" fill="#050508"/><rect x="27.09" y="77.37" width="5.13" height="5.13" fill="#050508"/><rect x="47.20" y="77.37" width="5.13" height="5.13" fill="#050508"/><rect x="52.23" y="77.37" width="5.13" height="5.13" fill="#050508"/><rect x="62.29" y="77.37" width="5.13" height="5.13" fill="#050508"/><rect x="67.31" y="77.37" width="5.13" height="5.13" fill="#050508"/><rect x="72.34" y="77.37" width="5.13" height="5.13" fill="#050508"/><rect x="107.54" y="77.37" width="5.13" height="5.13" fill="#050508"/><rect x="122.63" y="77.37" width="5.13" height="5.13" fill="#050508"/><rect x="142.74" y="77.37" width="5.13" height="5.13" fill="#050508"/><rect x="157.83" y="77.37" width="5.13" height="5.13" fill="#050508"/><rect x="162.86" y="77.37" width="5.13" height="5.13" fill="#050508"/><rect x="172.91" y="77.37" width="5.13" height="5.13" fill="#050508"/><rect x="177.94" y="77.37" width="5.13" height="5.13" fill="#050508"/><rect x="32.11" y="82.40" width="5.13" height="5.13" fill="#050508"/><rect x="37.14" y="82.40" width="5.13" height="5.13" fill="#050508"/><rect x="52.23" y="82.40" width="5.13" height="5.13" fill="#050508"/><rect x="62.29" y="82.40" width="5.13" height="5.13" fill="#050508"/><rect x="67.31" y="82.40" width="5.13" height="5.13" fill="#050508"/><rect x="82.40" y="82.40" width="5.13" height="5.13" fill="#050508"/><rect x="87.43" y="82.40" width="5.13" height="5.13" fill="#050508"/><rect x="92.46" y="82.40" width="5.13" height="5.13" fill="#050508"/><rect x="97.49" y="82.40" width="5.13" height="5.13" fill="#050508"/><rect x="102.51" y="82.40" width="5.13" height="5.13" fill="#050508"/><rect x="117.60" y="82.40" width="5.13" height="5.13" fill="#050508"/><rect x="122.63" y="82.40" width="5.13" height="5.13" fill="#050508"/><rect x="132.69" y="82.40" width="5.13" height="5.13" fill="#050508"/><rect x="137.71" y="82.40" width="5.13" height="5.13" fill="#050508"/><rect x="142.74" y="82.40" width="5.13" height="5.13" fill="#050508"/><rect x="147.77" y="82.40" width="5.13" height="5.13" fill="#050508"/><rect x="162.86" y="82.40" width="5.13" height="5.13" fill="#050508"/><rect x="167.89" y="82.40" width="5.13" height="5.13" fill="#050508"/><rect x="172.91" y="82.40" width="5.13" height="5.13" fill="#050508"/><rect x="177.94" y="82.40" width="5.13" height="5.13" fill="#050508"/><rect x="17.03" y="87.43" width="5.13" height="5.13" fill="#050508"/><rect x="22.06" y="87.43" width="5.13" height="5.13" fill="#050508"/><rect x="37.14" y="87.43" width="5.13" height="5.13" fill="#050508"/><rect x="47.20" y="87.43" width="5.13" height="5.13" fill="#050508"/><rect x="67.31" y="87.43" width="5.13" height="5.13" fill="#050508"/><rect x="72.34" y="87.43" width="5.13" height="5.13" fill="#050508"/><rect x="107.54" y="87.43" width="5.13" height="5.13" fill="#050508"/><rect x="112.57" y="87.43" width="5.13" height="5.13" fill="#050508"/><rect x="137.71" y="87.43" width="5.13" height="5.13" fill="#050508"/><rect x="142.74" y="87.43" width="5.13" height="5.13" fill="#050508"/><rect x="147.77" y="87.43" width="5.13" height="5.13" fill="#050508"/><rect x="172.91" y="87.43" width="5.13" height="5.13" fill="#050508"/><rect x="17.03" y="92.46" width="5.13" height="5.13" fill="#050508"/><rect x="32.11" y="92.46" width="5.13" height="5.13" fill="#050508"/><rect x="37.14" y="92.46" width="5.13" height="5.13" fill="#050508"/><rect x="62.29" y="92.46" width="5.13" height="5.13" fill="#050508"/><rect x="67.31" y="92.46" width="5.13" height="5.13" fill="#050508"/><rect x="72.34" y="92.46" width="5.13" height="5.13" fill="#050508"/><rect x="97.49" y="92.46" width="5.13" height="5.13" fill="#050508"/><rect x="107.54" y="92.46" width="5.13" height="5.13" fill="#050508"/><rect x="112.57" y="92.46" width="5.13" height="5.13" fill="#050508"/><rect x="117.60" y="92.46" width="5.13" height="5.13" fill="#050508"/><rect x="122.63" y="92.46" width="5.13" height="5.13" fill="#050508"/><rect x="127.66" y="92.46" width="5.13" height="5.13" fill="#050508"/><rect x="137.71" y="92.46" width="5.13" height="5.13" fill="#050508"/><rect x="142.74" y="92.46" width="5.13" height="5.13" fill="#050508"/><rect x="147.77" y="92.46" width="5.13" height="5.13" fill="#050508"/><rect x="157.83" y="92.46" width="5.13" height="5.13" fill="#050508"/><rect x="162.86" y="92.46" width="5.13" height="5.13" fill="#050508"/><rect x="167.89" y="92.46" width="5.13" height="5.13" fill="#050508"/><rect x="17.03" y="97.49" width="5.13" height="5.13" fill="#050508"/><rect x="47.20" y="97.49" width="5.13" height="5.13" fill="#050508"/><rect x="52.23" y="97.49" width="5.13" height="5.13" fill="#050508"/><rect x="62.29" y="97.49" width="5.13" height="5.13" fill="#050508"/><rect x="67.31" y="97.49" width="5.13" height="5.13" fill="#050508"/><rect x="72.34" y="97.49" width="5.13" height="5.13" fill="#050508"/><rect x="77.37" y="97.49" width="5.13" height="5.13" fill="#050508"/><rect x="87.43" y="97.49" width="5.13" height="5.13" fill="#050508"/><rect x="102.51" y="97.49" width="5.13" height="5.13" fill="#050508"/><rect x="112.57" y="97.49" width="5.13" height="5.13" fill="#050508"/><rect x="127.66" y="97.49" width="5.13" height="5.13" fill="#050508"/><rect x="137.71" y="97.49" width="5.13" height="5.13" fill="#050508"/><rect x="142.74" y="97.49" width="5.13" height="5.13" fill="#050508"/><rect x="152.80" y="97.49" width="5.13" height="5.13" fill="#050508"/><rect x="157.83" y="97.49" width="5.13" height="5.13" fill="#050508"/><rect x="177.94" y="97.49" width="5.13" height="5.13" fill="#050508"/><rect x="17.03" y="102.51" width="5.13" height="5.13" fill="#050508"/><rect x="37.14" y="102.51" width="5.13" height="5.13" fill="#050508"/><rect x="42.17" y="102.51" width="5.13" height="5.13" fill="#050508"/><rect x="62.29" y="102.51" width="5.13" height="5.13" fill="#050508"/><rect x="67.31" y="102.51" width="5.13" height="5.13" fill="#050508"/><rect x="87.43" y="102.51" width="5.13" height="5.13" fill="#050508"/><rect x="97.49" y="102.51" width="5.13" height="5.13" fill="#050508"/><rect x="102.51" y="102.51" width="5.13" height="5.13" fill="#050508"/><rect x="112.57" y="102.51" width="5.13" height="5.13" fill="#050508"/><rect x="117.60" y="102.51" width="5.13" height="5.13" fill="#050508"/><rect x="132.69" y="102.51" width="5.13" height="5.13" fill="#050508"/><rect x="142.74" y="102.51" width="5.13" height="5.13" fill="#050508"/><rect x="147.77" y="102.51" width="5.13" height="5.13" fill="#050508"/><rect x="152.80" y="102.51" width="5.13" height="5.13" fill="#050508"/><rect x="162.86" y="102.51" width="5.13" height="5.13" fill="#050508"/><rect x="167.89" y="102.51" width="5.13" height="5.13" fill="#050508"/><rect x="177.94" y="102.51" width="5.13" height="5.13" fill="#050508"/><rect x="37.14" y="107.54" width="5.13" height="5.13" fill="#050508"/><rect x="42.17" y="107.54" width="5.13" height="5.13" fill="#050508"/><rect x="47.20" y="107.54" width="5.13" height="5.13" fill="#050508"/><rect x="52.23" y="107.54" width="5.13" height="5.13" fill="#050508"/><rect x="77.37" y="107.54" width="5.13" height="5.13" fill="#050508"/><rect x="82.40" y="107.54" width="5.13" height="5.13" fill="#050508"/><rect x="87.43" y="107.54" width="5.13" height="5.13" fill="#050508"/><rect x="92.46" y="107.54" width="5.13" height="5.13" fill="#050508"/><rect x="97.49" y="107.54" width="5.13" height="5.13" fill="#050508"/><rect x="102.51" y="107.54" width="5.13" height="5.13" fill="#050508"/><rect x="127.66" y="107.54" width="5.13" height="5.13" fill="#050508"/><rect x="137.71" y="107.54" width="5.13" height="5.13" fill="#050508"/><rect x="152.80" y="107.54" width="5.13" height="5.13" fill="#050508"/><rect x="157.83" y="107.54" width="5.13" height="5.13" fill="#050508"/><rect x="167.89" y="107.54" width="5.13" height="5.13" fill="#050508"/><rect x="172.91" y="107.54" width="5.13" height="5.13" fill="#050508"/><rect x="17.03" y="112.57" width="5.13" height="5.13" fill="#050508"/><rect x="22.06" y="112.57" width="5.13" height="5.13" fill="#050508"/><rect x="32.11" y="112.57" width="5.13" height="5.13" fill="#050508"/><rect x="62.29" y="112.57" width="5.13" height="5.13" fill="#050508"/><rect x="67.31" y="112.57" width="5.13" height="5.13" fill="#050508"/><rect x="72.34" y="112.57" width="5.13" height="5.13" fill="#050508"/><rect x="92.46" y="112.57" width="5.13" height="5.13" fill="#050508"/><rect x="102.51" y="112.57" width="5.13" height="5.13" fill="#050508"/><rect x="107.54" y="112.57" width="5.13" height="5.13" fill="#050508"/><rect x="112.57" y="112.57" width="5.13" height="5.13" fill="#050508"/><rect x="117.60" y="112.57" width="5.13" height="5.13" fill="#050508"/><rect x="147.77" y="112.57" width="5.13" height="5.13" fill="#050508"/><rect x="152.80" y="112.57" width="5.13" height="5.13" fill="#050508"/><rect x="157.83" y="112.57" width="5.13" height="5.13" fill="#050508"/><rect x="162.86" y="112.57" width="5.13" height="5.13" fill="#050508"/><rect x="167.89" y="112.57" width="5.13" height="5.13" fill="#050508"/><rect x="172.91" y="112.57" width="5.13" height="5.13" fill="#050508"/><rect x="27.09" y="117.60" width="5.13" height="5.13" fill="#050508"/><rect x="42.17" y="117.60" width="5.13" height="5.13" fill="#050508"/><rect x="47.20" y="117.60" width="5.13" height="5.13" fill="#050508"/><rect x="57.26" y="117.60" width="5.13" height="5.13" fill="#050508"/><rect x="62.29" y="117.60" width="5.13" height="5.13" fill="#050508"/><rect x="67.31" y="117.60" width="5.13" height="5.13" fill="#050508"/><rect x="77.37" y="117.60" width="5.13" height="5.13" fill="#050508"/><rect x="97.49" y="117.60" width="5.13" height="5.13" fill="#050508"/><rect x="112.57" y="117.60" width="5.13" height="5.13" fill="#050508"/><rect x="117.60" y="117.60" width="5.13" height="5.13" fill="#050508"/><rect x="122.63" y="117.60" width="5.13" height="5.13" fill="#050508"/><rect x="127.66" y="117.60" width="5.13" height="5.13" fill="#050508"/><rect x="132.69" y="117.60" width="5.13" height="5.13" fill="#050508"/><rect x="152.80" y="117.60" width="5.13" height="5.13" fill="#050508"/><rect x="157.83" y="117.60" width="5.13" height="5.13" fill="#050508"/><rect x="162.86" y="117.60" width="5.13" height="5.13" fill="#050508"/><rect x="172.91" y="117.60" width="5.13" height="5.13" fill="#050508"/><rect x="17.03" y="122.63" width="5.13" height="5.13" fill="#050508"/><rect x="22.06" y="122.63" width="5.13" height="5.13" fill="#050508"/><rect x="37.14" y="122.63" width="5.13" height="5.13" fill="#050508"/><rect x="52.23" y="122.63" width="5.13" height="5.13" fill="#050508"/><rect x="57.26" y="122.63" width="5.13" height="5.13" fill="#050508"/><rect x="72.34" y="122.63" width="5.13" height="5.13" fill="#050508"/><rect x="77.37" y="122.63" width="5.13" height="5.13" fill="#050508"/><rect x="87.43" y="122.63" width="5.13" height="5.13" fill="#050508"/><rect x="92.46" y="122.63" width="5.13" height="5.13" fill="#050508"/><rect x="107.54" y="122.63" width="5.13" height="5.13" fill="#050508"/><rect x="132.69" y="122.63" width="5.13" height="5.13" fill="#050508"/><rect x="137.71" y="122.63" width="5.13" height="5.13" fill="#050508"/><rect x="147.77" y="122.63" width="5.13" height="5.13" fill="#050508"/><rect x="152.80" y="122.63" width="5.13" height="5.13" fill="#050508"/><rect x="162.86" y="122.63" width="5.13" height="5.13" fill="#050508"/><rect x="167.89" y="122.63" width="5.13" height="5.13" fill="#050508"/><rect x="177.94" y="122.63" width="5.13" height="5.13" fill="#050508"/><rect x="17.03" y="127.66" width="5.13" height="5.13" fill="#050508"/><rect x="32.11" y="127.66" width="5.13" height="5.13" fill="#050508"/><rect x="37.14" y="127.66" width="5.13" height="5.13" fill="#050508"/><rect x="42.17" y="127.66" width="5.13" height="5.13" fill="#050508"/><rect x="47.20" y="127.66" width="5.13" height="5.13" fill="#050508"/><rect x="52.23" y="127.66" width="5.13" height="5.13" fill="#050508"/><rect x="67.31" y="127.66" width="5.13" height="5.13" fill="#050508"/><rect x="72.34" y="127.66" width="5.13" height="5.13" fill="#050508"/><rect x="82.40" y="127.66" width="5.13" height="5.13" fill="#050508"/><rect x="92.46" y="127.66" width="5.13" height="5.13" fill="#050508"/><rect x="97.49" y="127.66" width="5.13" height="5.13" fill="#050508"/><rect x="117.60" y="127.66" width="5.13" height="5.13" fill="#050508"/><rect x="122.63" y="127.66" width="5.13" height="5.13" fill="#050508"/><rect x="137.71" y="127.66" width="5.13" height="5.13" fill="#050508"/><rect x="142.74" y="127.66" width="5.13" height="5.13" fill="#050508"/><rect x="152.80" y="127.66" width="5.13" height="5.13" fill="#050508"/><rect x="162.86" y="127.66" width="5.13" height="5.13" fill="#050508"/><rect x="167.89" y="127.66" width="5.13" height="5.13" fill="#050508"/><rect x="172.91" y="127.66" width="5.13" height="5.13" fill="#050508"/><rect x="17.03" y="132.69" width="5.13" height="5.13" fill="#050508"/><rect x="27.09" y="132.69" width="5.13" height="5.13" fill="#050508"/><rect x="32.11" y="132.69" width="5.13" height="5.13" fill="#050508"/><rect x="37.14" y="132.69" width="5.13" height="5.13" fill="#050508"/><rect x="42.17" y="132.69" width="5.13" height="5.13" fill="#050508"/><rect x="62.29" y="132.69" width="5.13" height="5.13" fill="#050508"/><rect x="77.37" y="132.69" width="5.13" height="5.13" fill="#050508"/><rect x="82.40" y="132.69" width="5.13" height="5.13" fill="#050508"/><rect x="92.46" y="132.69" width="5.13" height="5.13" fill="#050508"/><rect x="122.63" y="132.69" width="5.13" height="5.13" fill="#050508"/><rect x="127.66" y="132.69" width="5.13" height="5.13" fill="#050508"/><rect x="132.69" y="132.69" width="5.13" height="5.13" fill="#050508"/><rect x="137.71" y="132.69" width="5.13" height="5.13" fill="#050508"/><rect x="142.74" y="132.69" width="5.13" height="5.13" fill="#050508"/><rect x="147.77" y="132.69" width="5.13" height="5.13" fill="#050508"/><rect x="162.86" y="132.69" width="5.13" height="5.13" fill="#050508"/><rect x="167.89" y="132.69" width="5.13" height="5.13" fill="#050508"/><rect x="177.94" y="132.69" width="5.13" height="5.13" fill="#050508"/><rect x="17.03" y="137.71" width="5.13" height="5.13" fill="#050508"/><rect x="37.14" y="137.71" width="5.13" height="5.13" fill="#050508"/><rect x="47.20" y="137.71" width="5.13" height="5.13" fill="#050508"/><rect x="52.23" y="137.71" width="5.13" height="5.13" fill="#050508"/><rect x="57.26" y="137.71" width="5.13" height="5.13" fill="#050508"/><rect x="72.34" y="137.71" width="5.13" height="5.13" fill="#050508"/><rect x="77.37" y="137.71" width="5.13" height="5.13" fill="#050508"/><rect x="82.40" y="137.71" width="5.13" height="5.13" fill="#050508"/><rect x="92.46" y="137.71" width="5.13" height="5.13" fill="#050508"/><rect x="102.51" y="137.71" width="5.13" height="5.13" fill="#050508"/><rect x="127.66" y="137.71" width="5.13" height="5.13" fill="#050508"/><rect x="137.71" y="137.71" width="5.13" height="5.13" fill="#050508"/><rect x="142.74" y="137.71" width="5.13" height="5.13" fill="#050508"/><rect x="147.77" y="137.71" width="5.13" height="5.13" fill="#050508"/><rect x="152.80" y="137.71" width="5.13" height="5.13" fill="#050508"/><rect x="157.83" y="137.71" width="5.13" height="5.13" fill="#050508"/><rect x="162.86" y="137.71" width="5.13" height="5.13" fill="#050508"/><rect x="172.91" y="137.71" width="5.13" height="5.13" fill="#050508"/><rect x="177.94" y="137.71" width="5.13" height="5.13" fill="#050508"/><rect x="57.26" y="142.74" width="5.13" height="5.13" fill="#050508"/><rect x="67.31" y="142.74" width="5.13" height="5.13" fill="#050508"/><rect x="72.34" y="142.74" width="5.13" height="5.13" fill="#050508"/><rect x="97.49" y="142.74" width="5.13" height="5.13" fill="#050508"/><rect x="107.54" y="142.74" width="5.13" height="5.13" fill="#050508"/><rect x="112.57" y="142.74" width="5.13" height="5.13" fill="#050508"/><rect x="122.63" y="142.74" width="5.13" height="5.13" fill="#050508"/><rect x="137.71" y="142.74" width="5.13" height="5.13" fill="#050508"/><rect x="157.83" y="142.74" width="5.13" height="5.13" fill="#050508"/><rect x="167.89" y="142.74" width="5.13" height="5.13" fill="#050508"/><rect x="177.94" y="142.74" width="5.13" height="5.13" fill="#050508"/><rect x="17.03" y="147.77" width="5.13" height="5.13" fill="#050508"/><rect x="22.06" y="147.77" width="5.13" height="5.13" fill="#050508"/><rect x="27.09" y="147.77" width="5.13" height="5.13" fill="#050508"/><rect x="32.11" y="147.77" width="5.13" height="5.13" fill="#050508"/><rect x="37.14" y="147.77" width="5.13" height="5.13" fill="#050508"/><rect x="42.17" y="147.77" width="5.13" height="5.13" fill="#050508"/><rect x="47.20" y="147.77" width="5.13" height="5.13" fill="#050508"/><rect x="72.34" y="147.77" width="5.13" height="5.13" fill="#050508"/><rect x="92.46" y="147.77" width="5.13" height="5.13" fill="#050508"/><rect x="107.54" y="147.77" width="5.13" height="5.13" fill="#050508"/><rect x="122.63" y="147.77" width="5.13" height="5.13" fill="#050508"/><rect x="132.69" y="147.77" width="5.13" height="5.13" fill="#050508"/><rect x="137.71" y="147.77" width="5.13" height="5.13" fill="#050508"/><rect x="147.77" y="147.77" width="5.13" height="5.13" fill="#050508"/><rect x="157.83" y="147.77" width="5.13" height="5.13" fill="#050508"/><rect x="167.89" y="147.77" width="5.13" height="5.13" fill="#050508"/><rect x="172.91" y="147.77" width="5.13" height="5.13" fill="#050508"/><rect x="17.03" y="152.80" width="5.13" height="5.13" fill="#050508"/><rect x="47.20" y="152.80" width="5.13" height="5.13" fill="#050508"/><rect x="57.26" y="152.80" width="5.13" height="5.13" fill="#050508"/><rect x="62.29" y="152.80" width="5.13" height="5.13" fill="#050508"/><rect x="97.49" y="152.80" width="5.13" height="5.13" fill="#050508"/><rect x="112.57" y="152.80" width="5.13" height="5.13" fill="#050508"/><rect x="117.60" y="152.80" width="5.13" height="5.13" fill="#050508"/><rect x="122.63" y="152.80" width="5.13" height="5.13" fill="#050508"/><rect x="127.66" y="152.80" width="5.13" height="5.13" fill="#050508"/><rect x="132.69" y="152.80" width="5.13" height="5.13" fill="#050508"/><rect x="137.71" y="152.80" width="5.13" height="5.13" fill="#050508"/><rect x="157.83" y="152.80" width="5.13" height="5.13" fill="#050508"/><rect x="162.86" y="152.80" width="5.13" height="5.13" fill="#050508"/><rect x="167.89" y="152.80" width="5.13" height="5.13" fill="#050508"/><rect x="177.94" y="152.80" width="5.13" height="5.13" fill="#050508"/><rect x="17.03" y="157.83" width="5.13" height="5.13" fill="#050508"/><rect x="27.09" y="157.83" width="5.13" height="5.13" fill="#050508"/><rect x="32.11" y="157.83" width="5.13" height="5.13" fill="#050508"/><rect x="37.14" y="157.83" width="5.13" height="5.13" fill="#050508"/><rect x="47.20" y="157.83" width="5.13" height="5.13" fill="#050508"/><rect x="57.26" y="157.83" width="5.13" height="5.13" fill="#050508"/><rect x="62.29" y="157.83" width="5.13" height="5.13" fill="#050508"/><rect x="72.34" y="157.83" width="5.13" height="5.13" fill="#050508"/><rect x="107.54" y="157.83" width="5.13" height="5.13" fill="#050508"/><rect x="112.57" y="157.83" width="5.13" height="5.13" fill="#050508"/><rect x="122.63" y="157.83" width="5.13" height="5.13" fill="#050508"/><rect x="137.71" y="157.83" width="5.13" height="5.13" fill="#050508"/><rect x="142.74" y="157.83" width="5.13" height="5.13" fill="#050508"/><rect x="147.77" y="157.83" width="5.13" height="5.13" fill="#050508"/><rect x="152.80" y="157.83" width="5.13" height="5.13" fill="#050508"/><rect x="157.83" y="157.83" width="5.13" height="5.13" fill="#050508"/><rect x="162.86" y="157.83" width="5.13" height="5.13" fill="#050508"/><rect x="17.03" y="162.86" width="5.13" height="5.13" fill="#050508"/><rect x="27.09" y="162.86" width="5.13" height="5.13" fill="#050508"/><rect x="32.11" y="162.86" width="5.13" height="5.13" fill="#050508"/><rect x="37.14" y="162.86" width="5.13" height="5.13" fill="#050508"/><rect x="47.20" y="162.86" width="5.13" height="5.13" fill="#050508"/><rect x="57.26" y="162.86" width="5.13" height="5.13" fill="#050508"/><rect x="62.29" y="162.86" width="5.13" height="5.13" fill="#050508"/><rect x="67.31" y="162.86" width="5.13" height="5.13" fill="#050508"/><rect x="82.40" y="162.86" width="5.13" height="5.13" fill="#050508"/><rect x="92.46" y="162.86" width="5.13" height="5.13" fill="#050508"/><rect x="97.49" y="162.86" width="5.13" height="5.13" fill="#050508"/><rect x="117.60" y="162.86" width="5.13" height="5.13" fill="#050508"/><rect x="122.63" y="162.86" width="5.13" height="5.13" fill="#050508"/><rect x="127.66" y="162.86" width="5.13" height="5.13" fill="#050508"/><rect x="132.69" y="162.86" width="5.13" height="5.13" fill="#050508"/><rect x="137.71" y="162.86" width="5.13" height="5.13" fill="#050508"/><rect x="142.74" y="162.86" width="5.13" height="5.13" fill="#050508"/><rect x="157.83" y="162.86" width="5.13" height="5.13" fill="#050508"/><rect x="167.89" y="162.86" width="5.13" height="5.13" fill="#050508"/><rect x="177.94" y="162.86" width="5.13" height="5.13" fill="#050508"/><rect x="17.03" y="167.89" width="5.13" height="5.13" fill="#050508"/><rect x="27.09" y="167.89" width="5.13" height="5.13" fill="#050508"/><rect x="32.11" y="167.89" width="5.13" height="5.13" fill="#050508"/><rect x="37.14" y="167.89" width="5.13" height="5.13" fill="#050508"/><rect x="47.20" y="167.89" width="5.13" height="5.13" fill="#050508"/><rect x="57.26" y="167.89" width="5.13" height="5.13" fill="#050508"/><rect x="62.29" y="167.89" width="5.13" height="5.13" fill="#050508"/><rect x="67.31" y="167.89" width="5.13" height="5.13" fill="#050508"/><rect x="77.37" y="167.89" width="5.13" height="5.13" fill="#050508"/><rect x="82.40" y="167.89" width="5.13" height="5.13" fill="#050508"/><rect x="87.43" y="167.89" width="5.13" height="5.13" fill="#050508"/><rect x="102.51" y="167.89" width="5.13" height="5.13" fill="#050508"/><rect x="107.54" y="167.89" width="5.13" height="5.13" fill="#050508"/><rect x="112.57" y="167.89" width="5.13" height="5.13" fill="#050508"/><rect x="127.66" y="167.89" width="5.13" height="5.13" fill="#050508"/><rect x="132.69" y="167.89" width="5.13" height="5.13" fill="#050508"/><rect x="137.71" y="167.89" width="5.13" height="5.13" fill="#050508"/><rect x="142.74" y="167.89" width="5.13" height="5.13" fill="#050508"/><rect x="147.77" y="167.89" width="5.13" height="5.13" fill="#050508"/><rect x="152.80" y="167.89" width="5.13" height="5.13" fill="#050508"/><rect x="162.86" y="167.89" width="5.13" height="5.13" fill="#050508"/><rect x="17.03" y="172.91" width="5.13" height="5.13" fill="#050508"/><rect x="47.20" y="172.91" width="5.13" height="5.13" fill="#050508"/><rect x="62.29" y="172.91" width="5.13" height="5.13" fill="#050508"/><rect x="67.31" y="172.91" width="5.13" height="5.13" fill="#050508"/><rect x="97.49" y="172.91" width="5.13" height="5.13" fill="#050508"/><rect x="107.54" y="172.91" width="5.13" height="5.13" fill="#050508"/><rect x="112.57" y="172.91" width="5.13" height="5.13" fill="#050508"/><rect x="117.60" y="172.91" width="5.13" height="5.13" fill="#050508"/><rect x="122.63" y="172.91" width="5.13" height="5.13" fill="#050508"/><rect x="127.66" y="172.91" width="5.13" height="5.13" fill="#050508"/><rect x="132.69" y="172.91" width="5.13" height="5.13" fill="#050508"/><rect x="142.74" y="172.91" width="5.13" height="5.13" fill="#050508"/><rect x="147.77" y="172.91" width="5.13" height="5.13" fill="#050508"/><rect x="157.83" y="172.91" width="5.13" height="5.13" fill="#050508"/><rect x="162.86" y="172.91" width="5.13" height="5.13" fill="#050508"/><rect x="167.89" y="172.91" width="5.13" height="5.13" fill="#050508"/><rect x="17.03" y="177.94" width="5.13" height="5.13" fill="#050508"/><rect x="22.06" y="177.94" width="5.13" height="5.13" fill="#050508"/><rect x="27.09" y="177.94" width="5.13" height="5.13" fill="#050508"/><rect x="32.11" y="177.94" width="5.13" height="5.13" fill="#050508"/><rect x="37.14" y="177.94" width="5.13" height="5.13" fill="#050508"/><rect x="42.17" y="177.94" width="5.13" height="5.13" fill="#050508"/><rect x="47.20" y="177.94" width="5.13" height="5.13" fill="#050508"/><rect x="57.26" y="177.94" width="5.13" height="5.13" fill="#050508"/><rect x="67.31" y="177.94" width="5.13" height="5.13" fill="#050508"/><rect x="72.34" y="177.94" width="5.13" height="5.13" fill="#050508"/><rect x="87.43" y="177.94" width="5.13" height="5.13" fill="#050508"/><rect x="102.51" y="177.94" width="5.13" height="5.13" fill="#050508"/><rect x="107.54" y="177.94" width="5.13" height="5.13" fill="#050508"/><rect x="112.57" y="177.94" width="5.13" height="5.13" fill="#050508"/><rect x="127.66" y="177.94" width="5.13" height="5.13" fill="#050508"/><rect x="137.71" y="177.94" width="5.13" height="5.13" fill="#050508"/><rect x="142.74" y="177.94" width="5.13" height="5.13" fill="#050508"/><rect x="147.77" y="177.94" width="5.13" height="5.13" fill="#050508"/><rect x="152.80" y="177.94" width="5.13" height="5.13" fill="#050508"/><rect x="162.86" y="177.94" width="5.13" height="5.13" fill="#050508"/><rect x="172.91" y="177.94" width="5.13" height="5.13" fill="#050508"/>
</svg>